<?xml version="1.0" encoding="UTF-8"?>
<svg version="1.1" xmlns="http://www.w3.org/2000/svg" width="500" height="500">
<path d="M0 0 C165 0 330 0 500 0 C500 165 500 330 500 500 C335 500 170 500 0 500 C0 335 0 170 0 0 Z " fill="#FEFEFE" transform="translate(0,0)"/>
<path d="M0 0 C4.91777606 1.1470843 7.54178174 4.29652847 11.01269245 7.83250141 C12.17194404 8.97771308 12.17194404 8.97771308 13.35461485 10.14606035 C15.94853698 12.71599119 18.52041666 15.30691186 21.09292316 17.89826679 C22.94475815 19.74197442 24.79786776 21.58440257 26.65215778 23.42564106 C31.1680239 27.91480955 35.66749708 32.42007115 40.16132776 36.93128689 C43.81341524 40.59691771 47.47130848 44.25665864 51.13343906 47.91225529 C51.65439404 48.43229086 52.17534901 48.95232644 52.7120905 49.48812067 C53.77038388 50.54449572 54.82869072 51.60085729 55.88701089 52.65720551 C65.81317147 62.56625159 75.72084896 72.49361446 85.62232299 82.42731981 C94.12102887 90.95283274 102.63534354 99.46249141 111.16128254 107.96076679 C121.05913273 117.82651707 130.94718817 127.7019163 140.81978476 137.5929426 C141.87230129 138.64737045 142.92483038 139.70178576 143.97737217 140.75618839 C144.75419638 141.53440108 144.75419638 141.53440108 145.546714 142.32833523 C149.1991272 145.98593175 152.85846239 149.63651389 156.5205164 153.2844553 C161.44802684 158.19339327 166.35941563 163.11798076 171.26024723 168.05355167 C173.06429874 169.86555573 174.87351087 171.67243811 176.68813038 173.47385883 C179.15856965 175.92797663 181.6098969 178.39970364 184.05712605 180.87693501 C184.78453161 181.59095624 185.51193717 182.30497747 186.26138532 183.0406357 C191.02763964 187.9214134 191.02763964 187.9214134 191.67563534 192.09842205 C191.07366647 195.14157056 190.29116344 196.38759417 188.15395832 198.61066914 C187.52102863 199.27840351 186.88809895 199.94613789 186.23598957 200.63410664 C185.54891926 201.32762226 184.86184895 202.02113789 184.15395832 202.73566914 C183.43595051 203.49105976 182.7179427 204.24645039 181.97817707 205.02473164 C178.00634065 209.13452946 178.00634065 209.13452946 176.15395832 210.73566914 C175.49395832 210.73566914 174.83395832 210.73566914 174.15395832 210.73566914 C177.31283653 214.49829199 180.49344765 218.16646124 184.10317707 221.50520039 C184.60679768 221.97852802 185.11041828 222.45185566 185.62930012 222.93952656 C187.10444266 224.31451531 188.59768495 225.67000631 190.09145832 227.02473164 C192.15395832 229.73566914 192.15395832 229.73566914 192.23435307 232.41393185 C190.64732293 237.29334949 187.53840081 240.04164196 183.9301424 243.59440327 C183.16510796 244.36723766 182.40007352 245.14007205 181.61185622 245.93632567 C179.04035561 248.52780015 176.4513135 251.10100052 173.86196613 253.67463398 C172.01669756 255.52667611 170.17249472 257.3797806 168.32928181 259.2338686 C163.83779998 263.74758787 159.33289949 268.24768017 154.82304862 272.74303858 C151.15879492 276.39600345 147.49944691 280.05381561 143.8435564 283.71514988 C143.3233676 284.23610485 142.80317879 284.75705983 142.26722668 285.29380132 C141.21052967 286.35209693 140.1538439 287.41040377 139.09716925 288.4687217 C129.18767181 298.39247777 119.26290463 308.30084856 109.33285531 318.20403381 C100.80943279 326.70511088 92.29921426 335.21922151 83.79848957 343.74299335 C73.92933666 353.63889092 64.05213985 363.52664335 54.16192603 373.40149558 C53.10781463 374.45401421 52.05371368 375.5065433 50.9996233 376.55908298 C50.48096912 377.07696579 49.96231494 377.59484859 49.42794396 378.12842482 C45.77029311 381.78175515 42.11848332 385.44086244 38.46887684 389.10222721 C33.55922945 394.02734414 28.6365217 398.93907263 23.70467472 403.84195805 C21.89312013 405.64688231 20.08584221 407.45611028 18.2831049 409.26984119 C15.82864802 411.73788612 13.35943452 414.19012811 10.88570881 416.63883686 C10.16945686 417.36624242 9.4532049 418.09364798 8.71524835 418.84309614 C8.05103143 419.49427431 7.38681452 420.14545249 6.70246983 420.81636333 C6.13381112 421.38421028 5.56515242 421.95205722 4.97926164 422.53711164 C2.56432569 424.12284238 0.98895966 424.05063465 -1.84604168 423.73566914 C-3.90802193 422.37617111 -3.90802193 422.37617111 -6.0673399 420.31878376 C-7.38210717 419.07338227 -7.38210717 419.07338227 -8.7234354 417.80282116 C-9.76613253 416.78230191 -10.806846 415.75975369 -11.84604168 414.73566914 C-12.7389887 413.8615494 -12.7389887 413.8615494 -13.64997506 412.96977067 C-18.90404024 407.81735825 -24.10522469 402.61265947 -29.3052702 397.40583515 C-31.05858844 395.65387367 -32.81211897 393.90212461 -34.56584454 392.15057087 C-38.8126134 387.90787107 -43.05705613 383.66285743 -47.30033482 379.41666795 C-50.74742748 375.96730915 -54.19550437 372.51893706 -57.6442728 369.07125378 C-58.13664348 368.57903633 -58.62901416 368.08681888 -59.13630516 367.57968576 C-60.13670787 366.5796028 -61.1371128 365.57952208 -62.13751995 364.57944357 C-71.49090184 355.22890509 -80.84123006 345.87531787 -90.19049745 336.5206657 C-98.21464529 328.49203968 -106.24142691 320.46605466 -114.27011395 312.44196796 C-123.60561544 303.11181312 -132.93949923 293.78004485 -142.27079052 284.44567913 C-143.26457573 283.45157537 -144.25836303 282.4574737 -145.25215244 281.46337414 C-145.74107348 280.97429882 -146.22999452 280.48522351 -146.73373135 279.98132773 C-150.18192821 276.53226682 -153.63128531 273.08436885 -157.08108997 269.63691616 C-161.71522648 265.00586992 -166.34671882 260.37219112 -170.97641087 255.73670101 C-172.67959821 254.03218646 -174.38364626 252.32853147 -176.08859539 250.62577915 C-178.40654454 248.31054265 -180.72142326 245.99228036 -183.03551006 243.67318439 C-183.71836482 242.99256036 -184.40121958 242.31193632 -185.10476691 241.61068732 C-186.02856961 240.68297299 -186.02856961 240.68297299 -186.971035 239.73651695 C-187.50595631 239.2014333 -188.04087761 238.66634964 -188.59200865 238.11505133 C-190.35869749 236.17176988 -190.85092645 234.71307705 -191.40854168 232.13410664 C-190.51192876 226.71707022 -186.74833534 224.00588602 -182.84604168 220.36066914 C-182.08291668 219.62461445 -181.31979168 218.88855976 -180.53354168 218.13020039 C-178.65049781 216.31777066 -176.75492209 214.52080231 -174.84604168 212.73566914 C-178.2995871 208.63587204 -181.79600229 204.64760494 -185.59604168 200.86066914 C-186.35401043 200.10012226 -187.11197918 199.33957539 -187.89291668 198.55598164 C-189.72066961 196.68057924 -189.72066961 196.68057924 -191.84604168 195.73566914 C-192.2998991 193.22614765 -192.2998991 193.22614765 -191.84604168 189.73566914 C-189.7639966 186.78498079 -187.18656704 184.3795661 -184.58432293 181.88801289 C-183.84151577 181.15369541 -183.09870861 180.41937794 -182.33339214 179.66280842 C-179.95549422 177.31846586 -177.55763601 174.99579639 -175.15854168 172.67316914 C-173.56147 171.1062034 -171.96575032 169.5378584 -170.3714323 167.96809101 C-167.43417549 165.07979711 -164.48938902 162.19969551 -161.53476238 159.329175 C-155.47294727 153.48780271 -155.47294727 153.48780271 -149.84604168 147.23566914 C-147.30230453 144.23956636 -144.7453887 141.3934039 -141.84604168 138.73566914 C-141.18604168 138.73566914 -140.52604168 138.73566914 -139.84604168 138.73566914 C-139.63979168 138.17879414 -139.43354168 137.62191914 -139.22104168 137.04816914 C-137.71040156 134.50754712 -135.90745993 132.97059417 -133.57651043 131.17707539 C-131.17793634 129.17916605 -129.04496591 126.9512319 -126.84604168 124.73566914 C-126.00948071 123.89357741 -125.17291975 123.05148569 -124.31100845 122.18387604 C-123.40899169 121.27406636 -122.50697493 120.36425669 -121.57762432 119.42687702 C-120.52556438 118.36602207 -119.47348515 117.30518626 -118.42138958 116.24436665 C-117.58722704 115.40322504 -117.58722704 115.40322504 -116.73621273 114.54509068 C-103.92008433 101.62274592 -91.08668539 88.71766715 -78.24348068 75.82223511 C-70.82165143 68.36940974 -63.4055897 60.91100605 -56.00253582 53.43952656 C-49.53534865 46.91259552 -43.05773401 40.39622903 -36.56730741 33.8924039 C-33.13435277 30.4516239 -29.70688678 27.0057491 -26.29189014 23.54713726 C-23.08313787 20.29772704 -19.86065722 17.06260219 -16.62699986 13.83798122 C-15.44222467 12.65155304 -14.26259686 11.45995917 -13.08853436 10.26292896 C-11.4863431 8.63093967 -9.86675843 7.01845539 -8.24144268 5.40954304 C-7.33904889 4.50161849 -6.4366551 3.59369394 -5.50691605 2.65825653 C-2.84604168 0.73566914 -2.84604168 0.73566914 0 0 Z " fill="#FDFDFD" transform="translate(249.84604167938232,33.26433086395264)"/>
<path d="M0 0 C4.91777606 1.1470843 7.54178174 4.29652847 11.01269245 7.83250141 C12.17194404 8.97771308 12.17194404 8.97771308 13.35461485 10.14606035 C15.94853698 12.71599119 18.52041666 15.30691186 21.09292316 17.89826679 C22.94475815 19.74197442 24.79786776 21.58440257 26.65215778 23.42564106 C31.1680239 27.91480955 35.66749708 32.42007115 40.16132776 36.93128689 C43.81341524 40.59691771 47.47130848 44.25665864 51.13343906 47.91225529 C51.65439404 48.43229086 52.17534901 48.95232644 52.7120905 49.48812067 C53.77038388 50.54449572 54.82869072 51.60085729 55.88701089 52.65720551 C65.81317147 62.56625159 75.72084896 72.49361446 85.62232299 82.42731981 C94.12102887 90.95283274 102.63534354 99.46249141 111.16128254 107.96076679 C121.05913273 117.82651707 130.94718817 127.7019163 140.81978476 137.5929426 C141.87230129 138.64737045 142.92483038 139.70178576 143.97737217 140.75618839 C144.75419638 141.53440108 144.75419638 141.53440108 145.546714 142.32833523 C149.1991272 145.98593175 152.85846239 149.63651389 156.5205164 153.2844553 C161.44802684 158.19339327 166.35941563 163.11798076 171.26024723 168.05355167 C173.06429874 169.86555573 174.87351087 171.67243811 176.68813038 173.47385883 C179.15856965 175.92797663 181.6098969 178.39970364 184.05712605 180.87693501 C184.78453161 181.59095624 185.51193717 182.30497747 186.26138532 183.0406357 C191.02763964 187.9214134 191.02763964 187.9214134 191.67563534 192.09842205 C191.07366647 195.14157056 190.29116344 196.38759417 188.15395832 198.61066914 C187.52102863 199.27840351 186.88809895 199.94613789 186.23598957 200.63410664 C185.54891926 201.32762226 184.86184895 202.02113789 184.15395832 202.73566914 C183.43595051 203.49105976 182.7179427 204.24645039 181.97817707 205.02473164 C178.00634065 209.13452946 178.00634065 209.13452946 176.15395832 210.73566914 C175.49395832 210.73566914 174.83395832 210.73566914 174.15395832 210.73566914 C177.31283653 214.49829199 180.49344765 218.16646124 184.10317707 221.50520039 C184.60679768 221.97852802 185.11041828 222.45185566 185.62930012 222.93952656 C187.10444266 224.31451531 188.59768495 225.67000631 190.09145832 227.02473164 C192.15395832 229.73566914 192.15395832 229.73566914 192.23435307 232.41393185 C190.64732293 237.29334949 187.53840081 240.04164196 183.9301424 243.59440327 C183.16510796 244.36723766 182.40007352 245.14007205 181.61185622 245.93632567 C179.04035561 248.52780015 176.4513135 251.10100052 173.86196613 253.67463398 C172.01669756 255.52667611 170.17249472 257.3797806 168.32928181 259.2338686 C163.83779998 263.74758787 159.33289949 268.24768017 154.82304862 272.74303858 C151.15879492 276.39600345 147.49944691 280.05381561 143.8435564 283.71514988 C143.3233676 284.23610485 142.80317879 284.75705983 142.26722668 285.29380132 C141.21052967 286.35209693 140.1538439 287.41040377 139.09716925 288.4687217 C129.18767181 298.39247777 119.26290463 308.30084856 109.33285531 318.20403381 C100.80943279 326.70511088 92.29921426 335.21922151 83.79848957 343.74299335 C73.92933666 353.63889092 64.05213985 363.52664335 54.16192603 373.40149558 C53.10781463 374.45401421 52.05371368 375.5065433 50.9996233 376.55908298 C50.48096912 377.07696579 49.96231494 377.59484859 49.42794396 378.12842482 C45.77029311 381.78175515 42.11848332 385.44086244 38.46887684 389.10222721 C33.55922945 394.02734414 28.6365217 398.93907263 23.70467472 403.84195805 C21.89312013 405.64688231 20.08584221 407.45611028 18.2831049 409.26984119 C15.82864802 411.73788612 13.35943452 414.19012811 10.88570881 416.63883686 C10.16945686 417.36624242 9.4532049 418.09364798 8.71524835 418.84309614 C8.05103143 419.49427431 7.38681452 420.14545249 6.70246983 420.81636333 C6.13381112 421.38421028 5.56515242 421.95205722 4.97926164 422.53711164 C2.56432569 424.12284238 0.98895966 424.05063465 -1.84604168 423.73566914 C-3.90802193 422.37617111 -3.90802193 422.37617111 -6.0673399 420.31878376 C-7.38210717 419.07338227 -7.38210717 419.07338227 -8.7234354 417.80282116 C-9.76613253 416.78230191 -10.806846 415.75975369 -11.84604168 414.73566914 C-12.7389887 413.8615494 -12.7389887 413.8615494 -13.64997506 412.96977067 C-18.90404024 407.81735825 -24.10522469 402.61265947 -29.3052702 397.40583515 C-31.05858844 395.65387367 -32.81211897 393.90212461 -34.56584454 392.15057087 C-38.8126134 387.90787107 -43.05705613 383.66285743 -47.30033482 379.41666795 C-50.74742748 375.96730915 -54.19550437 372.51893706 -57.6442728 369.07125378 C-58.13664348 368.57903633 -58.62901416 368.08681888 -59.13630516 367.57968576 C-60.13670787 366.5796028 -61.1371128 365.57952208 -62.13751995 364.57944357 C-71.49090184 355.22890509 -80.84123006 345.87531787 -90.19049745 336.5206657 C-98.21464529 328.49203968 -106.24142691 320.46605466 -114.27011395 312.44196796 C-123.60561544 303.11181312 -132.93949923 293.78004485 -142.27079052 284.44567913 C-143.26457573 283.45157537 -144.25836303 282.4574737 -145.25215244 281.46337414 C-145.74107348 280.97429882 -146.22999452 280.48522351 -146.73373135 279.98132773 C-150.18192821 276.53226682 -153.63128531 273.08436885 -157.08108997 269.63691616 C-161.71522648 265.00586992 -166.34671882 260.37219112 -170.97641087 255.73670101 C-172.67959821 254.03218646 -174.38364626 252.32853147 -176.08859539 250.62577915 C-178.40654454 248.31054265 -180.72142326 245.99228036 -183.03551006 243.67318439 C-183.71836482 242.99256036 -184.40121958 242.31193632 -185.10476691 241.61068732 C-186.02856961 240.68297299 -186.02856961 240.68297299 -186.971035 239.73651695 C-187.50595631 239.2014333 -188.04087761 238.66634964 -188.59200865 238.11505133 C-190.35869749 236.17176988 -190.85092645 234.71307705 -191.40854168 232.13410664 C-190.51192876 226.71707022 -186.74833534 224.00588602 -182.84604168 220.36066914 C-182.08291668 219.62461445 -181.31979168 218.88855976 -180.53354168 218.13020039 C-178.65049781 216.31777066 -176.75492209 214.52080231 -174.84604168 212.73566914 C-178.2995871 208.63587204 -181.79600229 204.64760494 -185.59604168 200.86066914 C-186.35401043 200.10012226 -187.11197918 199.33957539 -187.89291668 198.55598164 C-189.72066961 196.68057924 -189.72066961 196.68057924 -191.84604168 195.73566914 C-192.2998991 193.22614765 -192.2998991 193.22614765 -191.84604168 189.73566914 C-189.7639966 186.78498079 -187.18656704 184.3795661 -184.58432293 181.88801289 C-183.84151577 181.15369541 -183.09870861 180.41937794 -182.33339214 179.66280842 C-179.95549422 177.31846586 -177.55763601 174.99579639 -175.15854168 172.67316914 C-173.56147 171.1062034 -171.96575032 169.5378584 -170.3714323 167.96809101 C-167.43417549 165.07979711 -164.48938902 162.19969551 -161.53476238 159.329175 C-155.47294727 153.48780271 -155.47294727 153.48780271 -149.84604168 147.23566914 C-147.30230453 144.23956636 -144.7453887 141.3934039 -141.84604168 138.73566914 C-141.18604168 138.73566914 -140.52604168 138.73566914 -139.84604168 138.73566914 C-139.63979168 138.17879414 -139.43354168 137.62191914 -139.22104168 137.04816914 C-137.71040156 134.50754712 -135.90745993 132.97059417 -133.57651043 131.17707539 C-131.17793634 129.17916605 -129.04496591 126.9512319 -126.84604168 124.73566914 C-126.00948071 123.89357741 -125.17291975 123.05148569 -124.31100845 122.18387604 C-123.40899169 121.27406636 -122.50697493 120.36425669 -121.57762432 119.42687702 C-120.52556438 118.36602207 -119.47348515 117.30518626 -118.42138958 116.24436665 C-117.58722704 115.40322504 -117.58722704 115.40322504 -116.73621273 114.54509068 C-103.92008433 101.62274592 -91.08668539 88.71766715 -78.24348068 75.82223511 C-70.82165143 68.36940974 -63.4055897 60.91100605 -56.00253582 53.43952656 C-49.53534865 46.91259552 -43.05773401 40.39622903 -36.56730741 33.8924039 C-33.13435277 30.4516239 -29.70688678 27.0057491 -26.29189014 23.54713726 C-23.08313787 20.29772704 -19.86065722 17.06260219 -16.62699986 13.83798122 C-15.44222467 12.65155304 -14.26259686 11.45995917 -13.08853436 10.26292896 C-11.4863431 8.63093967 -9.86675843 7.01845539 -8.24144268 5.40954304 C-7.33904889 4.50161849 -6.4366551 3.59369394 -5.50691605 2.65825653 C-2.84604168 0.73566914 -2.84604168 0.73566914 0 0 Z M-5.21338332 58.84484816 C-5.81843652 59.45572704 -6.42348972 60.06660592 -7.04687786 60.69599628 C-7.68970443 61.33711401 -8.332531 61.97823173 -8.99483716 62.63877726 C-11.16308244 64.80370946 -13.32406908 66.97574788 -15.48520184 69.14777851 C-17.03184582 70.69498622 -18.5789295 72.24175449 -20.12642193 73.78811359 C-24.33933791 78.00045354 -28.54604023 82.21895071 -32.75169706 86.43853664 C-37.14306068 90.84236589 -41.54005323 95.24056736 -45.93646526 99.63935566 C-53.3190512 107.02746027 -60.69813197 114.41905063 -68.0745573 121.81330585 C-75.67345542 129.43055251 -83.27444422 137.04570284 -90.87826824 144.65803242 C-91.58091753 145.36146988 -91.58091753 145.36146988 -92.29776175 146.07911819 C-94.64768528 148.43165173 -96.99765237 150.78414175 -99.34763551 153.13661575 C-118.85342114 172.66333114 -138.35206018 192.1971699 -157.84604168 211.73566914 C-153.89122985 216.46699469 -149.77643823 220.95534954 -145.41888714 225.31672382 C-144.79996645 225.94002677 -144.18104575 226.56332972 -143.54336989 227.20552063 C-141.48694077 229.27521173 -139.42702924 231.34139913 -137.36703777 233.40754414 C-135.88480151 234.89769041 -134.40274545 236.38801596 -132.92085552 237.87850666 C-128.07414576 242.75130067 -123.22209942 247.61876217 -118.36947918 252.48566914 C-116.69732841 254.16318244 -115.02518514 255.84070322 -113.35304928 257.51823139 C-106.40310765 264.48976869 -99.45173957 271.45987844 -92.49663639 278.42626667 C-82.52958132 288.4096033 -72.57114089 298.40136123 -62.62438238 308.40492153 C-55.6257542 315.44215501 -48.61765661 322.46986711 -41.60234988 329.49047375 C-37.41205471 333.68443104 -33.22608994 337.88251183 -29.05015469 342.09077168 C-25.12935549 346.04149073 -21.19702839 349.98034794 -17.25533009 353.91021252 C-15.80776087 355.35755974 -14.36449877 356.80922892 -12.92580128 358.26539516 C-10.96822502 360.24544922 -8.99603535 362.20965626 -7.01922894 364.17048359 C-6.44743983 364.75615479 -5.87565072 365.34182598 -5.28653467 365.94524479 C-3.54693613 367.70869879 -3.54693613 367.70869879 -0.84604168 369.73566914 C4.69624379 369.11083369 7.61445353 364.39397571 10.96645832 360.36066914 C13.78823442 357.00799186 16.93951229 354.25627136 20.27505207 351.42707539 C21.96599036 349.90487938 23.36619761 348.38684096 24.77895832 346.61066914 C27.3165414 343.53885804 30.0667571 341.24402012 33.15395832 338.73566914 C36.14147694 335.9013566 38.85879434 332.92624543 41.52895832 329.79816914 C44.29258032 326.5969237 47.2056194 323.91421539 50.46645832 321.23566914 C52.80454009 319.15737423 54.7057029 316.79202094 56.69302082 314.38410664 C58.15395832 312.73566914 58.15395832 312.73566914 61.09145832 310.29816914 C63.61020802 308.19064388 65.54471217 306.21577175 67.65395832 303.73566914 C70.55599245 300.32338725 73.70334058 297.59894769 77.15395832 294.73566914 C78.13261947 293.62830734 79.09010217 292.50197405 80.02895832 291.36066914 C82.80052817 288.00866581 85.89802098 285.30058939 89.20864582 282.49348164 C91.63901115 280.29736839 93.65132866 277.87363673 95.72817707 275.34895039 C97.15395832 273.73566914 97.15395832 273.73566914 100.09145832 271.29816914 C102.45833004 269.31772545 104.19420595 267.60451106 106.14638996 265.28059101 C110.94004678 259.74056425 116.14732848 254.61767829 121.33755207 249.45441914 C122.40393917 248.38990142 123.47010251 247.32515952 124.53605366 246.26020527 C127.31701239 243.4830308 130.10096276 240.70887488 132.88558674 237.93537617 C135.73665312 235.09461275 138.58482501 232.25095042 141.4332552 229.40754414 C147.0040235 223.84744084 152.57796151 218.29052895 158.15395832 212.73566914 C154.19875869 208.00095673 150.08071462 203.5168199 145.71334553 199.16134357 C144.78284779 198.2274475 144.78284779 198.2274475 143.83355212 197.27468485 C141.77246412 195.20731065 139.70786364 193.14348221 137.64321613 191.07966328 C136.15771116 189.59116371 134.6724107 188.10246002 133.18729877 186.61356831 C129.16735411 182.58481634 125.14419575 178.55928872 121.12016487 174.53461862 C118.60724526 172.02098737 116.09503934 169.50664512 113.58308887 166.9920454 C104.82359426 158.22331269 96.06153347 149.45715375 87.29702473 140.69343281 C79.11828488 132.51529539 70.94515672 124.33157909 62.77460122 116.14526564 C55.760653 109.11827084 48.74288436 102.09510723 41.72208953 95.07495302 C37.52793342 90.88105248 33.33536183 86.68559667 29.14661121 82.48629665 C25.21447847 78.54452984 21.27763676 74.60752954 17.33703136 70.67423344 C15.8880371 69.22629044 14.44076678 67.77661998 12.99530697 66.32514858 C11.03031028 64.35250623 9.05933168 62.38604832 7.08663654 60.4211092 C6.22021436 59.54697167 6.22021436 59.54697167 5.33628869 58.65517479 C0.46269027 53.8241638 -0.37103307 54.03750168 -5.21338332 58.84484816 Z " fill="#080808" transform="translate(249.84604167938232,33.26433086395264)"/>
<path d="M0 0 C0.40405273 1.86914062 0.40405273 1.86914062 0.43359375 4.15625 C0.44487305 5.00525879 0.45615234 5.85426758 0.46777344 6.72900391 C0.4577832 7.64343262 0.44779297 8.55786133 0.4375 9.5 C0.43137695 10.4389209 0.42525391 11.3778418 0.41894531 12.34521484 C0.21657591 21.58104316 -1.45065505 30.14957383 -4 39 C-4.27714844 40.00160156 -4.55429687 41.00320312 -4.83984375 42.03515625 C-10.42063174 59.4976219 -24.93409547 78.99048147 -40.1953125 89.12109375 C-42.95683324 91.40429907 -43.475411 93.12504062 -43.84765625 96.66015625 C-43.94011335 98.45998775 -44.01079782 100.26103708 -44.0625 102.0625 C-45.03897686 117.59554251 -50.54028575 128.39976432 -62 139 C-62.47566406 139.46921875 -62.95132813 139.9384375 -63.44140625 140.421875 C-69.12338768 145.73418535 -77.1370095 151.21156318 -85.125 151.5625 C-86.07375 151.376875 -87.0225 151.19125 -88 151 C-90 148 -90 148 -89.875 145.875 C-89.09727817 143.31962828 -88.13984675 141.30368417 -86.9375 138.9375 C-84.33586428 133.37732546 -84.63318954 128.02180508 -85 122 C-87.85778033 121.31506627 -87.85778033 121.31506627 -91 121 C-91.99 121.66 -92.98 122.32 -94 123 C-94.39603479 124.93204678 -94.39603479 124.93204678 -94.375 127.125 C-94.88303443 133.56355875 -98.02993048 137.74849197 -102.1875 142.5 C-104 144 -104 144 -106 144 C-106.33 144.99 -106.66 145.98 -107 147 C-109.3260857 147.38063221 -111.66055264 147.71269945 -114 148 C-115 147 -115 147 -115.37109375 144.73828125 C-114.72713888 139.98657215 -110.7680495 137.79580077 -107.28515625 134.79296875 C-104.98014602 131.97573402 -103.78143737 129.84892053 -103.53979492 126.1652832 C-104.56388632 121.34689245 -108.65677365 118.23813366 -112.125 115 C-112.8984375 114.22527344 -113.671875 113.45054687 -114.46875 112.65234375 C-118.40131854 108.5499154 -118.40131854 108.5499154 -123.5246582 106.56420898 C-126.69321922 107.12204323 -127.69136219 108.1766833 -129.84765625 110.53515625 C-130.53537109 111.26154297 -131.22308594 111.98792969 -131.93164062 112.73632812 C-132.63482422 113.50396484 -133.33800781 114.27160156 -134.0625 115.0625 C-135.45807012 116.58528708 -136.8651402 118.0976393 -138.28515625 119.59765625 C-139.21146851 120.61098022 -139.21146851 120.61098022 -140.15649414 121.64477539 C-142 123 -142 123 -144.10717773 122.83764648 C-146 122 -146 122 -148 120 C-147.56374144 113.96168646 -143.63675913 110.93815761 -139.5625 106.875 C-138.88767578 106.15957031 -138.21285156 105.44414062 -137.51757812 104.70703125 C-133.02023142 100.1800689 -129.3542818 97.98022696 -123.08178711 96.67236328 C-120.63041044 96.11868608 -120.63041044 96.11868608 -119 93 C-118.83300768 89.87478167 -118.83300768 89.87478167 -119 87 C-128.3647687 87.76145571 -135.18417919 88.43874289 -143 94 C-145.97194633 93.67040445 -146.84435321 93.15564679 -149 91 C-150.25382846 83.79048637 -146.72324845 78.00325832 -143 72 C-140.24199835 68.39621117 -137.23276137 65.18062006 -134 62 C-132.77023438 60.78957031 -132.77023438 60.78957031 -131.515625 59.5546875 C-121.50267006 50.13255909 -111.30281507 44.93506846 -97.375 45 C-93.43162515 44.76311883 -91.60829351 44.52718771 -88.59765625 41.91796875 C-87.11230619 40.04046478 -85.67816264 38.12166646 -84.2890625 36.171875 C-71.27882317 18.14403483 -49.13423784 3.41602973 -27.37109375 -0.68359375 C-5.83058176 -3.88705451 -5.83058176 -3.88705451 0 0 Z " fill="#090909" transform="translate(317,172)"/>
<path d="M0 0 C2.90614055 1.31505704 4.97517736 2.72585813 7.22523117 4.97913551 C7.84278959 5.59271184 8.46034801 6.20628816 9.09662032 6.8384577 C10.1005172 7.85109311 10.1005172 7.85109311 11.12469482 8.88418579 C12.20175387 9.95868156 12.20175387 9.95868156 13.30057168 11.05488431 C15.7113477 13.46235958 18.11489437 15.87692571 20.51855469 18.29150391 C22.24283119 20.01634439 23.9675479 21.74074492 25.69267273 23.46473694 C29.40883142 27.18043982 33.12190547 30.89919588 36.83220673 34.62074661 C42.19668333 40.00147748 47.56667424 45.37667706 52.93802693 50.7505428 C61.65254311 59.46943619 70.36258361 68.19278653 79.06982422 76.91894531 C87.52809261 85.39557181 95.98845908 93.87009513 104.45166016 102.34179688 C105.23417015 103.12509504 105.23417015 103.12509504 106.03248844 103.92421742 C108.64958395 106.54392301 111.26672081 109.16358728 113.88387823 111.78323102 C135.59566683 133.51575295 157.30012299 155.25558405 179 177 C178.06122074 178.1065941 177.12079084 179.21178799 176.1796875 180.31640625 C175.65616699 180.93201416 175.13264648 181.54762207 174.59326172 182.18188477 C172.4984209 184.57236585 170.28027529 186.78679163 168 189 C165.21706768 187.72912617 163.17737529 186.42464671 161.02578926 184.25512505 C160.46418197 183.69379966 159.90257468 183.13247427 159.32394898 182.55413902 C158.71714134 181.93741297 158.11033369 181.32068693 157.48513794 180.68527222 C156.83258526 180.03019499 156.18003258 179.37511776 155.50770557 178.70018971 C153.31824329 176.49995644 151.1360186 174.29268077 148.95361328 172.08544922 C147.38689744 170.50834886 145.81969601 168.93173078 144.25204468 167.3555603 C140.87509426 163.95871709 137.50107653 160.55899634 134.12912369 157.15719223 C128.79951808 151.78151736 123.46020491 146.41555766 118.11886597 141.05154419 C110.63331569 133.53301213 103.14912736 126.01313331 95.66845703 118.48974609 C95.19379454 118.01237873 94.71913204 117.53501137 94.23008583 117.04317833 C86.53343897 109.30214292 78.84451232 101.55347411 71.15750946 93.8028637 C63.26501046 85.84561737 55.3608465 77.90007841 47.44712245 69.96393216 C43.00426364 65.5075087 38.56729664 61.04553764 34.14346695 56.57021713 C29.98490241 52.36325044 25.81277757 48.17023706 21.62970352 43.9876442 C20.09499191 42.4480768 18.56545637 40.90333009 17.04146576 39.35314941 C14.96414625 37.24162452 12.86924522 35.14927421 10.76882935 33.0607605 C10.16648315 32.43957301 9.56413695 31.81838552 8.94353783 31.17837417 C6.13918041 28.42701882 4.73297263 27.11928687 0.76942348 26.47424316 C-3.34845457 27.25599523 -5.57642941 29.77903921 -8.38500977 32.68798828 C-8.99232941 33.29282547 -9.59964905 33.89766266 -10.22537231 34.52082825 C-12.22873563 36.52327363 -14.2098954 38.54625941 -16.19140625 40.5703125 C-17.58208566 41.9696503 -18.97402694 43.36773508 -20.36717224 44.76461792 C-24.0333514 48.44803357 -27.68074388 52.14953842 -31.32495117 55.85467529 C-34.29365043 58.86686041 -37.27524117 61.86609505 -40.25767612 64.86467171 C-43.82317224 68.44983935 -47.38322149 72.04038973 -50.94140625 75.6328125 C-51.61658358 76.31441563 -52.2917609 76.99601875 -52.98739815 77.69827652 C-54.90926047 79.6412635 -56.82747909 81.58776858 -58.74438477 83.53564453 C-59.30607864 84.1031694 -59.86777252 84.67069427 -60.44648743 85.25541687 C-63.82638366 88.69958255 -66.93110207 92.27672888 -70 96 C-71.30108858 97.20252126 -72.63174136 98.37449692 -74 99.5 C-76.45671288 101.59003932 -78.41825241 103.50190289 -80.5 106 C-82.56681856 108.48018227 -84.49778977 110.36674406 -86.9375 112.4375 C-90.15884036 115.17624255 -92.825574 118.05740576 -95.50390625 121.31640625 C-97.55947471 123.62959164 -99.89844622 125.50398197 -102.28125 127.46875 C-104.04164397 129.03710099 -105.50118557 130.68228889 -107 132.5 C-109.48591736 135.50961729 -112.16217657 137.98996566 -115.19140625 140.4453125 C-117.58766208 142.50516092 -119.77302042 144.760949 -122 147 C-123.4740121 148.47471828 -124.94841969 149.94904132 -126.4230957 151.4230957 C-127.26358963 152.26358963 -128.10408356 153.10408356 -128.970047 153.970047 C-140.646698 165.646698 -152.323349 177.323349 -164 189 C-167.63303084 187.30413874 -169.94549046 185.26199512 -172.75 182.375 C-173.94882813 181.14910156 -173.94882813 181.14910156 -175.171875 179.8984375 C-175.77515625 179.27195313 -176.3784375 178.64546875 -177 178 C-172.72804683 172.90070371 -168.26165868 168.11320005 -163.55761719 163.41235352 C-162.83818939 162.68956711 -162.1187616 161.9667807 -161.37753296 161.22209167 C-159.01993714 158.85506409 -156.65865155 156.49176191 -154.296875 154.12890625 C-152.65106985 152.47988602 -151.00533936 150.83079127 -149.35968018 149.18162537 C-145.92190047 145.73787602 -142.48207831 142.29618166 -139.04101562 138.85571289 C-134.6216794 134.43647884 -130.2092931 130.0103742 -125.79859543 125.58252048 C-122.40836319 122.18120719 -119.0136338 118.78441056 -115.61759186 115.38889885 C-113.98761845 113.75774198 -112.35927413 112.12495555 -110.73256683 110.49054146 C-108.46800095 108.21624286 -106.19726583 105.9482906 -103.92480469 103.68188477 C-103.24946686 103.00092743 -102.57412903 102.31997009 -101.87832642 101.61837769 C-101.26160065 101.00584641 -100.64487488 100.39331512 -100.00946045 99.76222229 C-99.4733955 99.22561257 -98.93733055 98.68900286 -98.38502121 98.13613224 C-97 97 -97 97 -95 97 C-94.01 95.02 -94.01 95.02 -93 93 C-92.34 93 -91.68 93 -91 93 C-90.773125 92.443125 -90.54625 91.88625 -90.3125 91.3125 C-88.62449964 88.33840412 -86.53323483 86.27991135 -84 84 C-83.34 84 -82.68 84 -82 84 C-81.01 82.02 -81.01 82.02 -80 80 C-79.34 80 -78.68 80 -78 80 C-77.773125 79.443125 -77.54625 78.88625 -77.3125 78.3125 C-76.00194653 76.00342961 -74.50322435 74.43450407 -72.61947632 72.58877563 C-70.68892728 70.69482434 -68.78675912 68.77419847 -66.8840332 66.85229492 C-62.61748985 62.55016628 -58.34485486 58.25414213 -54.07006836 53.96020508 C-52.22454192 52.10454826 -50.38080396 50.24711108 -48.53881836 48.38793945 C-45.88078533 45.70578334 -43.21646555 43.0300179 -40.55078125 40.35546875 C-39.7237117 39.51807663 -38.89664215 38.68068451 -38.04450989 37.81791687 C-36.89773018 36.67091057 -36.89773018 36.67091057 -35.7277832 35.50073242 C-35.05447464 34.82298264 -34.38116608 34.14523285 -33.68745422 33.44694519 C-32 32 -32 32 -30 32 C-29.79375 31.443125 -29.5875 30.88625 -29.375 30.3125 C-27.85334922 27.75336005 -26.02412811 26.31099151 -23.70703125 24.484375 C-21.76515932 22.79579072 -20.16359005 20.9623723 -18.5 19 C-16.38299623 16.5083053 -14.30095191 14.29581292 -11.75 12.25 C-9.34286221 10.28052363 -7.82602084 8.46512814 -6 6 C-5.34 6 -4.68 6 -4 6 C-3.34 4.68 -2.68 3.36 -2 2 C-1.34 2 -0.68 2 0 2 C0 1.34 0 0.68 0 0 Z " fill="#F9F9F9" transform="translate(249,48)"/>
<path d="M0 0 C2.78167974 1.2706918 4.82383145 2.57582531 6.97700405 4.74208164 C7.53922804 5.30279033 8.10145203 5.86349902 8.68071312 6.44119889 C9.28820288 7.05724281 9.89569264 7.67328673 10.52159119 8.30799866 C11.17484943 8.96237032 11.82810768 9.61674198 12.50116163 10.29094309 C14.69296408 12.48882651 16.87753041 14.69376514 19.06225586 16.89868164 C20.63060896 18.47414577 22.19943254 20.04914167 23.76869202 21.623703 C27.14903205 25.01715298 30.52633881 28.41358364 33.90144157 31.81224251 C39.23581874 37.18315564 44.57884045 42.54541134 49.92347717 47.90611267 C57.41360526 55.42006689 64.90165687 62.93607882 72.38647461 70.45532227 C73.09886182 71.17097984 73.09886182 71.17097984 73.82564069 71.90109514 C80.56778702 78.67447326 87.3069427 85.4508192 94.04490698 92.22835719 C94.5195286 92.70576543 94.99415021 93.18317367 95.4831543 93.67504883 C95.95719568 94.15187727 96.43123706 94.62870571 96.91964334 95.1199835 C104.82149421 103.06788998 112.73116247 111.0079656 120.64696604 118.94197935 C125.9642885 124.27240782 131.27245865 129.61173744 136.5741061 134.95775425 C139.87086627 138.27793262 143.17591767 141.58975818 146.48340416 144.89924812 C148.01838313 146.43853129 149.54990626 147.98126934 151.07773972 149.52764511 C153.15987346 151.63406977 155.25390784 153.7278951 157.35142517 155.81898499 C157.95668421 156.43725963 158.56194325 157.05553428 159.18554348 157.69254452 C161.52072988 159.99990376 163.55413086 161.77349399 166.49119949 163.26555443 C170.67781771 162.8224044 172.98488498 159.81574085 175.78938293 156.93214417 C176.45927409 156.26737956 177.12916525 155.60261495 177.81935614 154.91770595 C180.07093038 152.67605162 182.30032912 150.41355199 184.53051758 148.15063477 C186.13585753 146.54360321 187.74251819 144.93789005 189.35040283 143.33340454 C193.72094386 138.96458996 198.07269775 134.57747908 202.42141175 130.18695188 C206.9657728 125.60516595 211.52705097 121.04028677 216.08659363 116.47361755 C223.74020217 108.8034596 231.38322662 101.12291951 239.01831055 93.43432617 C246.8830279 85.51454752 254.75401298 77.60108561 262.63354492 69.69604492 C263.11911158 69.20890192 263.60467825 68.72175892 264.10495905 68.219854 C266.54090617 65.77607674 268.9769774 63.33242325 271.41311038 60.88883126 C291.62801701 40.61170883 311.82086745 20.31272041 332 0 C335.15187367 1.49589444 337.21665945 3.02154157 339.625 5.5625 C342.04521959 8.14015389 342.04521959 8.14015389 345 10 C343.68494296 12.90614055 342.27414187 14.97517736 340.02086449 17.22523117 C339.40728816 17.84278959 338.79371184 18.46034801 338.1615423 19.09662032 C337.48645203 19.76588491 336.81136176 20.43514949 336.11581421 21.12469482 C335.3994837 21.84273419 334.68315318 22.56077355 333.94511569 23.30057168 C331.53764042 25.7113477 329.12307429 28.11489437 326.70849609 30.51855469 C324.98365561 32.24283119 323.25925508 33.9675479 321.53526306 35.69267273 C317.81956018 39.40883142 314.10080412 43.12190547 310.37925339 46.83220673 C304.99852252 52.19668333 299.62332294 57.56667424 294.2494572 62.93802693 C285.53056381 71.65254311 276.80721347 80.36258361 268.08105469 89.06982422 C259.60442819 97.52809261 251.12990487 105.98845908 242.65820312 114.45166016 C241.87490496 115.23417015 241.87490496 115.23417015 241.07578258 116.03248844 C238.45607699 118.64958395 235.83641272 121.26672081 233.21676898 123.88387823 C211.48424705 145.59566683 189.74441595 167.30012299 168 189 C165.09385945 187.68494296 163.02482264 186.27414187 160.77476883 184.02086449 C160.15721041 183.40728816 159.53965199 182.79371184 158.90337968 182.1615423 C158.23411509 181.48645203 157.56485051 180.81136176 156.87530518 180.11581421 C156.15726581 179.3994837 155.43922645 178.68315318 154.69942832 177.94511569 C152.2886523 175.53764042 149.88510563 173.12307429 147.48144531 170.70849609 C145.75716881 168.98365561 144.0324521 167.25925508 142.30732727 165.53526306 C138.59116858 161.81956018 134.87809453 158.10080412 131.16779327 154.37925339 C125.80331667 148.99852252 120.43332576 143.62332294 115.06197307 138.2494572 C106.34745689 129.53056381 97.63741639 120.80721347 88.93017578 112.08105469 C80.47190739 103.60442819 72.01154092 95.12990487 63.54833984 86.65820312 C63.02666651 86.13600435 62.50499318 85.61380557 61.96751156 85.07578258 C59.35041605 82.45607699 56.73327919 79.83641272 54.11612177 77.21676898 C32.40433317 55.48424705 10.69987701 33.74441595 -11 12 C-10.06122074 10.8934059 -9.12079084 9.78821201 -8.1796875 8.68359375 C-7.39440674 7.76018188 -7.39440674 7.76018188 -6.59326172 6.81811523 C-4.4984209 4.42763415 -2.28027529 2.21320837 0 0 Z " fill="#FAFAFA" transform="translate(83,254)"/>
<path d="M0 0 C1.46572277 21.86369794 -8.46117454 41.54449045 -22.328125 57.71484375 C-24.51177459 60.18444746 -26.73959417 62.60068655 -29 65 C-29.80630859 65.88558594 -29.80630859 65.88558594 -30.62890625 66.7890625 C-41.1509954 77.91768812 -54.71153922 86.55965795 -67.02392578 95.54882812 C-69.04928149 96.99365247 -69.04928149 96.99365247 -71.00341797 98.74804688 C-73 100 -73 100 -74.93847656 99.98071289 C-77.86699769 98.58754977 -79.7145926 96.61989656 -81.984375 94.30859375 C-82.44483215 93.84389175 -82.90528931 93.37918976 -83.37969971 92.90040588 C-84.84367811 91.41968181 -86.29686041 89.92885481 -87.75 88.4375 C-88.74279449 87.42965336 -89.7362767 86.42248367 -90.73046875 85.41601562 C-93.16166473 82.95180539 -95.58328868 80.47842671 -98 78 C-96.59775948 74.35884376 -95.09397615 71.5036986 -92.75 68.375 C-92.03972656 67.42109375 -91.32945312 66.4671875 -90.59765625 65.484375 C-89.98881592 64.67129883 -89.98881592 64.67129883 -89.36767578 63.84179688 C-87.81054381 61.74486657 -86.2777994 59.63119646 -84.74609375 57.515625 C-64.87145596 30.1409673 -37.9258459 -3.28204436 0 0 Z " fill="#FAFAFA" transform="translate(307,181)"/>
<path d="M0 0 C4.58269224 2.30617684 8.14985827 5.11991601 10 10 C10.68073835 15.2401022 10.65733258 19.6609892 8.3125 24.4375 C2.68702233 30.67113742 2.68702233 30.67113742 -2.0859375 31.6015625 C-12.0612145 31.67264523 -12.0612145 31.67264523 -16.1875 28.25 C-19.81615958 24.61215394 -21.28848208 21.26483465 -21.3125 16.125 C-21.17479207 10.91504986 -20.26635069 7.43422852 -16.62890625 3.52734375 C-11.68254289 -0.73103622 -6.2921487 -1.28907917 0 0 Z " fill="#0A0A0A" transform="translate(273,206)"/>
<path d="M0 0 C0.99 0.495 0.99 0.495 2 1 C1.60008173 1.39801966 1.20016347 1.79603933 0.78812647 2.20612019 C-22.89970386 25.78212597 -46.57451614 49.3711167 -70.23244908 72.97712244 C-73.07137502 75.80979463 -75.91040974 78.64235777 -78.74951172 81.47485352 C-79.31473791 82.03876816 -79.8799641 82.6026828 -80.46231836 83.18368576 C-89.62167151 92.32126626 -98.78981505 101.44997805 -107.96122211 110.57545813 C-117.36764617 119.93516927 -126.76459699 129.30431253 -136.15277147 138.682329 C-141.9488203 144.47150795 -147.75218291 150.25315175 -153.56503832 156.02545599 C-158.01717325 160.44810409 -162.4560889 164.88380174 -166.89012718 169.32458878 C-168.71438278 171.14746406 -170.54295648 172.96602929 -172.37604713 174.78001976 C-174.87062361 177.24986315 -177.34945995 179.73448537 -179.8248291 182.22355652 C-180.56021833 182.94438154 -181.29560756 183.66520656 -182.05328131 184.40787476 C-183.04082395 185.41035027 -183.04082395 185.41035027 -184.04831696 186.43307781 C-184.62245409 187.00531635 -185.19659123 187.57755489 -185.78812647 188.16713399 C-187.36149046 190.54672667 -187.22638419 192.20570509 -187 195 C-187.66 195 -188.32 195 -189 195 C-189.45385742 192.49047852 -189.45385742 192.49047852 -189 189 C-186.91795492 186.04931166 -184.34052536 183.64389696 -181.73828125 181.15234375 C-180.99547409 180.41802628 -180.25266693 179.6837088 -179.48735046 178.92713928 C-177.10945254 176.58279673 -174.71159433 174.26012726 -172.3125 171.9375 C-170.71542832 170.37053426 -169.11970864 168.80218926 -167.52539062 167.23242188 C-164.58813381 164.34412798 -161.64334734 161.46402638 -158.6887207 158.59350586 C-152.62690559 152.75213358 -152.62690559 152.75213358 -147 146.5 C-144.45626285 143.50389723 -141.89934702 140.65773476 -139 138 C-138.34 138 -137.68 138 -137 138 C-136.79375 137.443125 -136.5875 136.88625 -136.375 136.3125 C-134.86435988 133.77187799 -133.06141825 132.23492503 -130.73046875 130.44140625 C-128.33212661 128.44369011 -126.19974303 126.2143343 -124 124 C-82.66666667 82.66666667 -41.33333333 41.33333333 0 0 Z " fill="#171717" transform="translate(247,34)"/>
<path d="M0 0 C1.20753317 10.00527481 -3.38442931 18.2449394 -9.29296875 26.015625 C-12.89814522 30.14617895 -16.17679662 33.3345455 -21 36 C-20.98839844 35.07058594 -20.97679687 34.14117187 -20.96484375 33.18359375 C-20.95582031 31.94738281 -20.94679687 30.71117187 -20.9375 29.4375 C-20.92589844 28.21933594 -20.91429687 27.00117188 -20.90234375 25.74609375 C-20.99775362 22.08617121 -21.40994037 18.61004985 -22 15 C-21.54149658 14.68772461 -21.08299316 14.37544922 -20.6105957 14.05371094 C-18.50981506 12.62120386 -16.41114835 11.1856289 -14.3125 9.75 C-13.2306543 9.01330078 -13.2306543 9.01330078 -12.12695312 8.26171875 C-0.06484375 0 -0.06484375 0 0 0 Z " fill="#F4F4F4" transform="translate(263,272)"/>
<path d="M0 0 C-1.79133472 4.06103724 -4.40423573 7.49147001 -7 11.0625 C-10.56238402 15.98744445 -10.56238402 15.98744445 -14 21 C-16.06298828 21.43237305 -16.06298828 21.43237305 -18.5703125 21.51171875 C-19.91416016 21.56489258 -19.91416016 21.56489258 -21.28515625 21.61914062 C-22.69087891 21.65297852 -22.69087891 21.65297852 -24.125 21.6875 C-25.54232422 21.73874023 -25.54232422 21.73874023 -26.98828125 21.79101562 C-29.32540253 21.87364112 -31.66214191 21.94273988 -34 22 C-26.82096638 10.65354551 -14.14544279 -0.83627146 0 0 Z " fill="#F1F1F1" transform="translate(217,228)"/>
<path d="M0 0 C1 1 1 1 1.32006836 3.27661133 C0.88989526 6.93685611 -0.48279048 8.04466709 -3.12109375 10.57421875 C-3.97380859 11.40630859 -4.82652344 12.23839844 -5.70507812 13.09570312 C-7.05762695 14.37864258 -7.05762695 14.37864258 -8.4375 15.6875 C-10.20887257 17.3978346 -11.97849639 19.10998282 -13.74609375 20.82421875 C-14.53685303 21.57791748 -15.3276123 22.33161621 -16.14233398 23.1081543 C-18.06348524 24.87066465 -18.06348524 24.87066465 -19 27 C-21.375 27.125 -21.375 27.125 -24 27 C-24.66 26.34 -25.32 25.68 -26 25 C-25.68776426 18.19168534 -19.78900379 14.17261897 -15.25 9.6875 C-14.3425 8.75615234 -13.435 7.82480469 -12.5 6.86523438 C-11.61828125 5.98544922 -10.7365625 5.10566406 -9.828125 4.19921875 C-9.0227832 3.39315186 -8.21744141 2.58708496 -7.38769531 1.7565918 C-4.63685361 -0.26716138 -3.33816091 -0.47981557 0 0 Z " fill="#0D0D0D" transform="translate(199,284)"/>
<path d="M0 0 C1.8215332 0.76416016 1.8215332 0.76416016 2.8215332 1.76416016 C3.14215259 4.67444458 3.18066106 6.2303671 1.52392578 8.69287109 C0.92733154 9.28874023 0.3307373 9.88460938 -0.28393555 10.49853516 C-0.93813477 11.15466797 -1.59233398 11.81080078 -2.26635742 12.48681641 C-2.95922852 13.15583984 -3.65209961 13.82486328 -4.3659668 14.51416016 C-5.37626953 15.54089844 -5.37626953 15.54089844 -6.40698242 16.58837891 C-12.31326755 22.40823059 -12.31326755 22.40823059 -17.1784668 22.76416016 C-17.8384668 22.10416016 -18.4984668 21.44416016 -19.1784668 20.76416016 C-18.76618892 14.60722382 -14.52981387 11.49107775 -10.3659668 7.38916016 C-9.64086914 6.64021484 -8.91577148 5.89126953 -8.16870117 5.11962891 C-7.46422852 4.41708984 -6.75975586 3.71455078 -6.03393555 2.99072266 C-5.06943481 2.02513428 -5.06943481 2.02513428 -4.08544922 1.04003906 C-2.1784668 -0.23583984 -2.1784668 -0.23583984 0 0 Z " fill="#0D0D0D" transform="translate(208.178466796875,294.23583984375)"/>
<path d="M0 0 C2 2 2 2 2.3125 5.4375 C2 9 2 9 0.8125 10.9375 C-1.68780874 12.40319823 -3.15130656 12.49852135 -6 12 C-8.2855347 9.87208838 -8.92303658 8.52591672 -9.375 5.4375 C-9 3 -9 3 -7.875 1.1875 C-5.16554166 -0.52849028 -3.13704316 -0.333728 0 0 Z " fill="#F0F0F0" transform="translate(271,216)"/>
<path d="M0 0 C3.85063416 1.56877688 6.15180131 4.0161728 9 7 C9.556875 7.50144531 10.11375 8.00289063 10.6875 8.51953125 C12.375 10.0625 12.375 10.0625 15 13 C14.6640625 15.18359375 14.6640625 15.18359375 14 17 C11 17 11 17 9.46606445 15.80664062 C8.937146 15.26201172 8.40822754 14.71738281 7.86328125 14.15625 C7.28642578 13.56972656 6.70957031 12.98320312 6.11523438 12.37890625 C5.52033203 11.75886719 4.92542969 11.13882812 4.3125 10.5 C3.70599609 9.87996094 3.09949219 9.25992187 2.47460938 8.62109375 C0.97626257 7.08735293 -0.51276493 5.54451802 -2 4 C-1.34 2.68 -0.68 1.36 0 0 Z " fill="#E4E4E4" transform="translate(205,270)"/>
</svg>
